<svg width="18" height="18" viewBox="0 0 18 18" fill="none" xmlns="http://www.w3.org/2000/svg">
<path d="M7.125 1.5C9.59055 1.5 10.8235 1.49976 11.6533 2.18066C11.8052 2.30533 11.9447 2.44477 12.0693 2.59668C12.6738 3.33314 13.0973 4.25821 13.1504 6.19336C12.7983 6.18811 12.4153 6.1875 12 6.1875H11.25C10.2053 6.1875 9.36495 6.18583 8.70605 6.27441C8.03101 6.36518 7.46315 6.56031 7.01172 7.01172C6.56031 7.46315 6.36518 8.03101 6.27441 8.70605C6.18583 9.36495 6.1875 10.2053 6.1875 11.25V12C6.1875 12.2617 6.18724 12.5106 6.18848 12.7471C4.33274 12.7362 3.31399 12.658 2.59668 12.0693C2.44477 11.9447 2.30532 11.8052 2.18066 11.6533C1.49976 10.8235 1.5 9.59055 1.5 7.125C1.5 4.65945 1.49975 3.42644 2.18066 2.59668C2.30533 2.44477 2.44477 2.30532 2.59668 2.18066C3.42644 1.49975 4.65945 1.5 7.125 1.5Z" fill="#B3B8C1"/>
<path d="M6.71777 11.1842C6.71777 9.0629 6.71777 8.00225 7.37678 7.34321C8.03582 6.6842 9.09647 6.6842 11.2178 6.6842H11.9678C14.0891 6.6842 15.1497 6.6842 15.8087 7.34321C16.4678 8.00225 16.4678 9.0629 16.4678 11.1842V11.9342C16.4678 14.0555 16.4678 15.1162 15.8087 15.7752C15.1497 16.4342 14.0891 16.4342 11.9678 16.4342H11.2178C9.09647 16.4342 8.03582 16.4342 7.37678 15.7752C6.71777 15.1162 6.71777 14.0555 6.71777 11.9342V11.1842Z" fill="#B3B8C1"/>
</svg>
