<svg width="24" height="22" viewBox="0 0 24 22" fill="none" xmlns="http://www.w3.org/2000/svg">
<g clip-path="url(#clip0_36199_23047)">
<path d="M12.0932 22C11.9464 21.9998 11.802 21.9657 11.6732 21.901L7.35329 19.855C6.24844 19.3574 5.25209 18.679 4.41333 17.8531C2.76555 16.2096 1.8345 14.0681 1.79736 11.8361V4.53224C1.80028 4.11714 1.9439 3.71313 2.20833 3.37613C2.47277 3.03914 2.84494 2.78583 3.27334 2.65127L11.2052 0.121306C11.6815 -0.0365717 12.2022 -0.040453 12.6812 0.110306L20.6491 2.56327C21.0852 2.68115 21.4696 2.92218 21.7475 3.25201C22.0255 3.58185 22.1828 3.98367 22.1971 4.40025V11.6931C22.2253 13.3728 21.7343 15.0255 20.7809 16.4602C19.8274 17.8948 18.4504 19.0527 16.8092 19.8L12.5252 21.901C12.3965 21.9657 12.2521 21.9998 12.1052 22H12.0932ZM8.87726 9.90017C8.75691 9.89753 8.63726 9.91765 8.52577 9.95929C8.41428 10.0009 8.31335 10.0632 8.22927 10.1422C8.07383 10.2898 7.98696 10.487 7.98696 10.6922C7.98696 10.8973 8.07383 11.0945 8.22927 11.2422L10.5212 13.2771C10.6963 13.4214 10.9219 13.5033 11.1572 13.5081C11.3958 13.5079 11.6246 13.4209 11.7932 13.2661L16.4732 9.04218C16.6286 8.89454 16.7155 8.69737 16.7155 8.49219C16.7155 8.28701 16.6286 8.08983 16.4732 7.9422C16.3009 7.78963 16.0707 7.70436 15.8312 7.70436C15.5916 7.70436 15.3615 7.78963 15.1892 7.9422L11.1692 11.5941L9.51326 10.1422C9.43016 10.065 9.3311 10.0039 9.22189 9.96236C9.11268 9.9208 8.99551 9.89966 8.87726 9.90017Z" fill="#25630D"/>
<path d="M11.3032 0.416992C11.7172 0.279741 12.1708 0.276181 12.5874 0.407227L12.5894 0.408203L20.5571 2.86035V2.86133L20.5679 2.86328C20.9457 2.9654 21.2742 3.17338 21.5093 3.45215C21.7146 3.69584 21.8405 3.98355 21.8765 4.28223L21.8862 4.41113V11.6982C21.9134 13.3132 21.4415 14.9046 20.522 16.2881C19.6597 17.5855 18.4356 18.6509 16.9751 19.376L16.6802 19.5166L16.6724 19.5205L12.3882 21.6211L12.3853 21.623C12.3007 21.6655 12.2042 21.6883 12.105 21.6885H12.0933L12.02 21.6846C11.9469 21.676 11.8765 21.655 11.813 21.623L11.8062 21.6201L7.48682 19.5742V19.5732L7.48096 19.5713L7.08447 19.3818C6.17019 18.9215 5.34165 18.3303 4.63135 17.6309C3.13879 16.1413 2.25908 14.2337 2.12549 12.2324L2.10889 11.8311V4.53418C2.11136 4.19041 2.23032 3.85293 2.45361 3.56836C2.67732 3.28334 2.99525 3.06492 3.3667 2.94824H3.36768L11.3003 0.417969L11.3032 0.416992ZM15.8315 7.39355C15.5195 7.39355 15.2146 7.50389 14.9829 7.70898L14.98 7.71191L11.1646 11.1768L9.71826 9.9082C9.60637 9.80593 9.47514 9.72615 9.33252 9.67188C9.18939 9.61741 9.03687 9.58909 8.8833 9.58887C8.72422 9.58547 8.56516 9.61245 8.4165 9.66797C8.26779 9.72357 8.13111 9.80702 8.01611 9.91504L8.01514 9.91602C7.80095 10.1195 7.67529 10.3977 7.67529 10.6924C7.67536 10.987 7.801 11.2644 8.01514 11.4678L8.02295 11.4746L10.3149 13.5098L10.3237 13.5176C10.5259 13.6841 10.7758 13.7856 11.0376 13.8125L11.1509 13.8193H11.1577C11.4695 13.819 11.7731 13.7056 12.0015 13.4971L16.6821 9.27344L16.687 9.26758C16.9012 9.06414 17.0269 8.7869 17.0269 8.49219C17.0269 8.19766 16.9019 7.9202 16.688 7.7168L16.6792 7.70898C16.4476 7.50404 16.1434 7.39364 15.8315 7.39355Z" stroke="#F5EEEE" stroke-opacity="0.8" stroke-width="0.622458"/>
<rect x="6.15186" y="5.07867" width="12.9231" height="11.2821" fill="#25630D"/>
<path d="M16.2212 12.7352V8.49237H17.4192V12.7352H16.2212ZM14.8413 11.2559V9.97163H18.799V11.2559H14.8413Z" fill="white"/>
<path d="M11.6113 13.6187C11.1692 13.6187 10.7743 13.5452 10.4266 13.398C10.0808 13.2508 9.80802 13.0511 9.60835 12.7988C9.41047 12.5466 9.31152 12.2618 9.31152 11.9445C9.31152 11.7018 9.36768 11.4801 9.47999 11.2794C9.59409 11.0788 9.74741 10.9125 9.93994 10.7806C10.1325 10.6468 10.3473 10.5608 10.5844 10.5226V10.4767C10.2724 10.4194 10.0157 10.2713 9.81426 10.0324C9.61459 9.79159 9.51476 9.50778 9.51476 9.18096C9.51476 8.87326 9.60568 8.59996 9.78752 8.36107C9.96936 8.12026 10.2181 7.93105 10.5336 7.79344C10.8491 7.65584 11.2084 7.58704 11.6113 7.58704C12.0142 7.58704 12.3734 7.65679 12.689 7.79631C13.0045 7.93392 13.2532 8.12312 13.435 8.36393C13.6169 8.60283 13.7078 8.87518 13.7078 9.18096C13.7078 9.50969 13.6062 9.7935 13.4029 10.0324C13.1997 10.2713 12.9448 10.4194 12.6381 10.4767V10.5226C12.8735 10.5608 13.0874 10.6468 13.2799 10.7806C13.4725 10.9125 13.6258 11.0788 13.7399 11.2794C13.854 11.4801 13.911 11.7018 13.911 11.9445C13.911 12.2618 13.8112 12.5466 13.6115 12.7988C13.4136 13.0511 13.1409 13.2508 12.7932 13.398C12.4474 13.5452 12.0534 13.6187 11.6113 13.6187ZM11.6113 12.5179C11.7521 12.5179 11.8769 12.4873 11.9857 12.4262C12.0944 12.365 12.18 12.2809 12.2424 12.1739C12.3066 12.0649 12.3386 11.9426 12.3386 11.8069C12.3386 11.6712 12.3066 11.5508 12.2424 11.4457C12.18 11.3406 12.0944 11.2584 11.9857 11.1992C11.8769 11.138 11.7521 11.1074 11.6113 11.1074C11.4722 11.1074 11.3474 11.138 11.2369 11.1992C11.1282 11.2584 11.0417 11.3406 10.9775 11.4457C10.9151 11.5508 10.8839 11.6712 10.8839 11.8069C10.8839 11.9426 10.9151 12.064 10.9775 12.171C11.0417 12.278 11.1282 12.3631 11.2369 12.4262C11.3474 12.4873 11.4722 12.5179 11.6113 12.5179ZM11.6113 10.0066C11.7361 10.0066 11.8466 9.97889 11.9429 9.92346C12.0391 9.86804 12.1149 9.79159 12.1702 9.69412C12.2254 9.59665 12.2531 9.48675 12.2531 9.36444C12.2531 9.24212 12.2254 9.13414 12.1702 9.04049C12.1149 8.94493 12.0391 8.8704 11.9429 8.81688C11.8466 8.76146 11.7361 8.73375 11.6113 8.73375C11.4883 8.73375 11.3777 8.76146 11.2797 8.81688C11.1834 8.8704 11.1076 8.94493 11.0524 9.04049C10.9971 9.13414 10.9695 9.24212 10.9695 9.36444C10.9695 9.48675 10.9971 9.59665 11.0524 9.69412C11.1076 9.78968 11.1834 9.86613 11.2797 9.92346C11.3777 9.97889 11.4883 10.0066 11.6113 10.0066Z" fill="white"/>
<path d="M8.25256 7.6712V13.5424H6.76574V9.13899H6.73366L5.53564 9.90729V8.55417L6.88341 7.6712H8.25256Z" fill="white"/>
</g>
<defs>
<clipPath id="clip0_36199_23047">
<rect width="24" height="22" fill="white"/>
</clipPath>
</defs>
</svg>
